<?xml version="1.0" encoding="UTF-8" standalone="no"?>
<!DOCTYPE svg PUBLIC "-//W3C//DTD SVG 1.1//EN" "http://www.w3.org/Graphics/SVG/1.1/DTD/svg11.dtd">
<svg width="100%" height="100%" viewBox="0 0 2287 651" version="1.1" xmlns="http://www.w3.org/2000/svg" xmlns:xlink="http://www.w3.org/1999/xlink" xml:space="preserve" xmlns:serif="http://www.serif.com/" style="fill-rule:evenodd;clip-rule:evenodd;stroke-linecap:round;stroke-linejoin:round;stroke-miterlimit:1.5;">
    <g transform="matrix(1,0,0,1,-610.684093,-915.155487)">
        <g transform="matrix(0.879121,0,0,0.854473,1801.654885,289.460532)">
            <rect x="513.78" y="739.573" width="335.876" height="345.565" style="fill:rgb(235,235,235);fill-opacity:0;stroke:black;stroke-width:14.42px;"/>
        </g>
        <g transform="matrix(0.879121,0,0,0.854473,1459.37143,631.688927)">
            <rect x="513.78" y="739.573" width="335.876" height="345.565" style="fill:rgb(173,97,97);fill-opacity:0;stroke:black;stroke-width:14.42px;"/>
        </g>
        <g transform="matrix(0.879121,0,0,0.854473,1801.654885,631.688927)">
            <rect x="513.78" y="739.573" width="335.876" height="345.565" style="fill:rgb(235,235,235);fill-opacity:0;stroke:black;stroke-width:14.42px;"/>
        </g>
        <g transform="matrix(0.879121,0,0,0.854473,2143.990023,631.688927)">
            <rect x="513.78" y="739.573" width="335.876" height="345.565" style="fill:rgb(235,235,235);fill-opacity:0;stroke:black;stroke-width:14.42px;"/>
        </g>
        <g transform="matrix(0.879121,0,0,0.854473,507.543237,289.460532)">
            <rect x="513.78" y="739.573" width="335.876" height="345.565" style="fill:rgb(235,235,235);fill-opacity:0;stroke:black;stroke-width:14.42px;"/>
        </g>
        <g transform="matrix(0.879121,0,0,0.854473,165.259783,631.688927)">
            <rect x="513.78" y="739.573" width="335.876" height="345.565" style="fill:white;fill-opacity:0;stroke:black;stroke-width:14.42px;"/>
        </g>
        <g transform="matrix(0.879121,0,0,0.854473,507.543237,631.688927)">
            <rect x="513.78" y="739.573" width="335.876" height="345.565" style="fill:rgb(235,235,235);fill-opacity:0;stroke:black;stroke-width:14.42px;"/>
        </g>
        <g transform="matrix(0.879121,0,0,0.854473,849.878375,631.688927)">
            <rect x="513.78" y="739.573" width="335.876" height="345.565" style="fill:rgb(235,235,235);fill-opacity:0;stroke:black;stroke-width:14.42px;"/>
        </g>
        <g transform="matrix(1.542847,0,0,1.542847,-346.760241,-1574.171988)">
            <g transform="matrix(135.031789,0,0,135.031789,1014.828549,1760.805516)">
            </g>
            <text x="869.534px" y="1760.806px" style="font-family:'Poppins-ExtraBold', 'Poppins';font-weight:800;font-size:135.032px;">W</text>
        </g>
        <g transform="matrix(1.542847,0,0,1.542847,-655.606195,-1231.943593)">
            <g transform="matrix(135.031789,0,0,135.031789,971.483345,1760.805516)">
            </g>
            <text x="869.534px" y="1760.806px" style="font-family:'Poppins-ExtraBold', 'Poppins';font-weight:800;font-size:135.032px;">A</text>
        </g>
        <g transform="matrix(1.542847,0,0,1.542847,-299.260241,-1229.651926)">
            <g transform="matrix(135.031789,0,0,135.031789,953.254054,1760.805516)">
            </g>
            <text x="869.534px" y="1760.806px" style="font-family:'Poppins-ExtraBold', 'Poppins';font-weight:800;font-size:135.032px;">S</text>
        </g>
        <g transform="matrix(1.542847,0,0,1.542847,28.595731,-1231.943593)">
            <g transform="matrix(135.031789,0,0,135.031789,968.782709,1760.805516)">
            </g>
            <text x="869.534px" y="1760.806px" style="font-family:'Poppins-ExtraBold', 'Poppins';font-weight:800;font-size:135.032px;">D</text>
        </g>
        <g transform="matrix(0.455146,0,0,0.747568,2131.999991,-128.185993)">
            <path d="M1185.487,2059.287L1310.767,2059.287L1310.767,1986.945L1500.693,2059.287L1310.767,2131.63L1310.767,2059.287L1185.487,2059.287Z" style="fill:rgb(235,235,235);fill-opacity:0;stroke:black;stroke-width:20.2px;"/>
        </g>
        <g transform="matrix(0,-0.455146,0.747568,0,861.509318,1680.34542)">
            <path d="M1185.487,2059.287L1310.767,2059.287L1310.767,1986.945L1500.693,2059.287L1310.767,2131.63L1310.767,2059.287L1185.487,2059.287Z" style="fill:rgb(235,235,235);fill-opacity:0;stroke:black;stroke-width:20.2px;"/>
        </g>
        <g transform="matrix(0,0.455146,-0.747568,0,3940.424662,799.969541)">
            <path d="M1185.487,2059.287L1310.767,2059.287L1310.767,1986.945L1500.693,2059.287L1310.767,2131.63L1310.767,2059.287L1185.487,2059.287Z" style="fill:rgb(235,235,235);fill-opacity:0;stroke:black;stroke-width:20.2px;"/>
        </g>
        <g transform="matrix(-0.455146,-0,0,-0.747568,2669.985673,2950.72935)">
            <path d="M1185.487,2059.287L1310.767,2059.287L1310.767,1986.945L1500.693,2059.287L1310.767,2131.63L1310.767,2059.287L1185.487,2059.287Z" style="fill:rgb(235,235,235);fill-opacity:0;stroke:black;stroke-width:20.2px;"/>
        </g>
    </g>
</svg>
